<svg id="Capa_1" enable-background="new 0 0 46 58" height="512" viewBox="0 0 46 58" width="512" xmlns="http://www.w3.org/2000/svg"><path id="Shape" d="m46 55v3h-46v-3c0-3 1.9-5.7 4.7-6.8l9.8-3.7c1.6-.6 2.6-2.1 2.6-3.7v-2c0-1.1-.5-2.2-1.3-3-2.5-2.1-3.8-5.2-3.7-8.4 0-.1 0-.3 0-.4h-1c-1.7 0-3-1.3-3-3v-3c0-1.2.7-2.3 1.8-2.8-.6-1.8-.9-3.6-.9-5.5 0-7.4 4.7-12.7 11.2-12.7 6.2 0 10.7 2.9 12 6.8.3.8-.1.5.6.8 3.9 1.6 4.8 6.4 3.8 10.4l-.2.4c1 .5 1.6 1.5 1.5 2.6v3c0 1.7-1.3 3-3 3h-1v.4c.2 3.2-1.2 6.3-3.7 8.4-.9.8-1.3 1.9-1.3 3v2c0 1.7 1 3.2 2.6 3.7l9.8 3.7c2.8 1.1 4.7 3.8 4.7 6.8z" fill="#f3d55b"/></svg>